<svg xmlns="http://www.w3.org/2000/svg" xmlns:xlink="http://www.w3.org/1999/xlink" width="250" zoomAndPan="magnify" viewBox="0 0 187.5 52.499999" height="70" preserveAspectRatio="xMidYMid meet" version="1.0"><defs><g/><clipPath id="3f8f649cce"><path d="M 47.507812 18.746094 L 120.507812 18.746094 L 120.507812 28.429688 L 47.507812 28.429688 Z M 47.507812 18.746094 " clip-rule="nonzero"/></clipPath></defs><g fill="#b80842" fill-opacity="1"><g transform="translate(68.580548, 50.372039)"><g><path d="M 0.792969 -39.726562 C 4.925781 -26.179688 7.308594 -18.15625 11.363281 -4.925781 C 12.195312 -2.183594 13.785156 0.398438 16.683594 0.398438 C 19.585938 0.398438 21.175781 -2.183594 22.007812 -4.925781 C 23.796875 -10.765625 25.265625 -15.574219 26.695312 -20.300781 C 28.164062 -15.574219 29.597656 -10.726562 31.382812 -4.925781 C 32.21875 -2.183594 33.808594 0.398438 36.707031 0.398438 C 39.605469 0.398438 41.195312 -2.183594 42.03125 -4.925781 C 46.042969 -18.15625 48.503906 -26.179688 52.597656 -39.726562 L 46.519531 -39.726562 C 42.425781 -26.179688 40.125 -18.113281 35.953125 -4.925781 C 35.59375 -3.8125 35.078125 -3.457031 34.203125 -3.457031 C 30.746094 -3.457031 29.316406 -17.320312 29.039062 -28.007812 C 30.113281 -31.582031 31.265625 -35.355469 32.574219 -39.726562 L 26.496094 -39.726562 C 22.40625 -26.179688 20.101562 -18.113281 15.929688 -4.925781 C 15.574219 -3.8125 15.054688 -3.457031 14.183594 -3.457031 C 8.9375 -3.457031 8.34375 -35.078125 9.453125 -39.726562 Z M 0.792969 -39.726562 "/></g></g></g><g fill="#b80842" fill-opacity="1"><g transform="translate(48.218618, 44.988505)"><g><path d="M 12.472656 0 C 26.972656 0 31.144531 -10.25 31.144531 -19.863281 C 31.144531 -29.476562 26.972656 -39.726562 12.472656 -39.726562 L 2.78125 -39.726562 L 2.78125 0 Z M 11.242188 -39.128906 C 23.320312 -39.128906 25.386719 -27.730469 25.386719 -19.863281 C 25.386719 -11.996094 23.320312 -0.597656 11.242188 -0.597656 L 8.542969 -0.597656 L 8.542969 -39.128906 Z M 11.242188 -39.128906 "/></g></g></g><g clip-path="url(#3f8f649cce)"><path fill="#ffffff" d="M 47.515625 18.746094 L 120.5 18.746094 L 120.5 28.429688 L 47.515625 28.429688 L 47.515625 18.746094 " fill-opacity="1" fill-rule="nonzero"/></g><g fill="#d8a902" fill-opacity="1"><g transform="translate(54.439607, 26.103634)"><g><path d="M 4.765625 -2.6875 C 4.765625 -1.800781 4.53125 -1.128906 4.0625 -0.671875 C 3.59375 -0.222656 2.910156 0 2.015625 0 L 0.75 0 L 0.75 -5.28125 L 2.171875 -5.28125 C 3.015625 -5.28125 3.65625 -5.0625 4.09375 -4.625 C 4.539062 -4.1875 4.765625 -3.539062 4.765625 -2.6875 Z M 4.359375 -2.6875 C 4.359375 -3.4375 4.164062 -4.003906 3.78125 -4.390625 C 3.394531 -4.773438 2.832031 -4.96875 2.09375 -4.96875 L 1.125 -4.96875 L 1.125 -0.328125 L 2 -0.328125 C 3.570312 -0.328125 4.359375 -1.113281 4.359375 -2.6875 Z M 4.359375 -2.6875 "/></g></g><g transform="translate(59.668349, 26.103634)"><g><path d="M 3.046875 0 L 2.953125 -0.625 L 2.921875 -0.625 C 2.722656 -0.375 2.519531 -0.191406 2.3125 -0.078125 C 2.101562 0.0234375 1.859375 0.078125 1.578125 0.078125 C 1.191406 0.078125 0.890625 -0.0195312 0.671875 -0.21875 C 0.460938 -0.414062 0.359375 -0.691406 0.359375 -1.046875 C 0.359375 -1.429688 0.515625 -1.726562 0.828125 -1.9375 C 1.148438 -2.144531 1.613281 -2.257812 2.21875 -2.28125 L 2.96875 -2.296875 L 2.96875 -2.5625 C 2.96875 -2.9375 2.890625 -3.21875 2.734375 -3.40625 C 2.585938 -3.59375 2.34375 -3.6875 2 -3.6875 C 1.644531 -3.6875 1.269531 -3.585938 0.875 -3.390625 L 0.734375 -3.703125 C 1.171875 -3.898438 1.597656 -4 2.015625 -4 C 2.453125 -4 2.773438 -3.882812 2.984375 -3.65625 C 3.203125 -3.4375 3.3125 -3.085938 3.3125 -2.609375 L 3.3125 0 Z M 1.59375 -0.25 C 2.019531 -0.25 2.351562 -0.367188 2.59375 -0.609375 C 2.832031 -0.847656 2.953125 -1.179688 2.953125 -1.609375 L 2.953125 -2 L 2.265625 -1.96875 C 1.710938 -1.945312 1.316406 -1.863281 1.078125 -1.71875 C 0.847656 -1.570312 0.734375 -1.34375 0.734375 -1.03125 C 0.734375 -0.78125 0.804688 -0.585938 0.953125 -0.453125 C 1.109375 -0.316406 1.320312 -0.25 1.59375 -0.25 Z M 1.59375 -0.25 "/></g></g><g transform="translate(63.591713, 26.103634)"><g><path d="M 3.40625 0 L 3.40625 -2.546875 C 3.40625 -2.941406 3.320312 -3.226562 3.15625 -3.40625 C 2.988281 -3.59375 2.726562 -3.6875 2.375 -3.6875 C 1.90625 -3.6875 1.5625 -3.566406 1.34375 -3.328125 C 1.125 -3.085938 1.015625 -2.703125 1.015625 -2.171875 L 1.015625 0 L 0.65625 0 L 0.65625 -3.9375 L 0.96875 -3.9375 L 1.03125 -3.390625 L 1.046875 -3.390625 C 1.304688 -3.796875 1.765625 -4 2.421875 -4 C 3.304688 -4 3.75 -3.523438 3.75 -2.578125 L 3.75 0 Z M 3.40625 0 "/></g></g><g transform="translate(67.959847, 26.103634)"><g><path d="M 1.015625 0 L 0.65625 0 L 0.65625 -3.9375 L 1.015625 -3.9375 Z M 0.609375 -5.015625 C 0.609375 -5.253906 0.679688 -5.375 0.828125 -5.375 C 0.910156 -5.375 0.972656 -5.34375 1.015625 -5.28125 C 1.054688 -5.21875 1.078125 -5.128906 1.078125 -5.015625 C 1.078125 -4.910156 1.054688 -4.828125 1.015625 -4.765625 C 0.972656 -4.703125 0.910156 -4.671875 0.828125 -4.671875 C 0.679688 -4.671875 0.609375 -4.785156 0.609375 -5.015625 Z M 0.609375 -5.015625 "/></g></g><g transform="translate(69.634056, 26.103634)"><g><path d="M 2.25 0.078125 C 1.675781 0.078125 1.226562 -0.0976562 0.90625 -0.453125 C 0.59375 -0.804688 0.4375 -1.300781 0.4375 -1.9375 C 0.4375 -2.5625 0.585938 -3.0625 0.890625 -3.4375 C 1.203125 -3.8125 1.617188 -4 2.140625 -4 C 2.597656 -4 2.960938 -3.835938 3.234375 -3.515625 C 3.503906 -3.191406 3.640625 -2.753906 3.640625 -2.203125 L 3.640625 -1.921875 L 0.8125 -1.921875 C 0.8125 -1.378906 0.9375 -0.960938 1.1875 -0.671875 C 1.4375 -0.390625 1.789062 -0.25 2.25 -0.25 C 2.46875 -0.25 2.660156 -0.265625 2.828125 -0.296875 C 3.003906 -0.328125 3.222656 -0.394531 3.484375 -0.5 L 3.484375 -0.171875 C 3.265625 -0.078125 3.054688 -0.015625 2.859375 0.015625 C 2.671875 0.0546875 2.46875 0.078125 2.25 0.078125 Z M 2.140625 -3.6875 C 1.765625 -3.6875 1.460938 -3.5625 1.234375 -3.3125 C 1.003906 -3.0625 0.867188 -2.703125 0.828125 -2.234375 L 3.265625 -2.234375 C 3.265625 -2.691406 3.164062 -3.046875 2.96875 -3.296875 C 2.769531 -3.554688 2.492188 -3.6875 2.140625 -3.6875 Z M 2.140625 -3.6875 "/></g></g><g transform="translate(73.698445, 26.103634)"><g><path d="M 1.015625 0 L 0.65625 0 L 0.65625 -5.625 L 1.015625 -5.625 Z M 1.015625 0 "/></g></g><g transform="translate(75.372655, 26.103634)"><g><path d="M 1.015625 0 L 0.65625 0 L 0.65625 -5.625 L 1.015625 -5.625 Z M 1.015625 0 "/></g></g><g transform="translate(77.046865, 26.103634)"><g><path d="M 2.25 0.078125 C 1.675781 0.078125 1.226562 -0.0976562 0.90625 -0.453125 C 0.59375 -0.804688 0.4375 -1.300781 0.4375 -1.9375 C 0.4375 -2.5625 0.585938 -3.0625 0.890625 -3.4375 C 1.203125 -3.8125 1.617188 -4 2.140625 -4 C 2.597656 -4 2.960938 -3.835938 3.234375 -3.515625 C 3.503906 -3.191406 3.640625 -2.753906 3.640625 -2.203125 L 3.640625 -1.921875 L 0.8125 -1.921875 C 0.8125 -1.378906 0.9375 -0.960938 1.1875 -0.671875 C 1.4375 -0.390625 1.789062 -0.25 2.25 -0.25 C 2.46875 -0.25 2.660156 -0.265625 2.828125 -0.296875 C 3.003906 -0.328125 3.222656 -0.394531 3.484375 -0.5 L 3.484375 -0.171875 C 3.265625 -0.078125 3.054688 -0.015625 2.859375 0.015625 C 2.671875 0.0546875 2.46875 0.078125 2.25 0.078125 Z M 2.140625 -3.6875 C 1.765625 -3.6875 1.460938 -3.5625 1.234375 -3.3125 C 1.003906 -3.0625 0.867188 -2.703125 0.828125 -2.234375 L 3.265625 -2.234375 C 3.265625 -2.691406 3.164062 -3.046875 2.96875 -3.296875 C 2.769531 -3.554688 2.492188 -3.6875 2.140625 -3.6875 Z M 2.140625 -3.6875 "/></g></g></g><g fill="#d8a902" fill-opacity="1"><g transform="translate(94.36507, 26.791963)"><g><path d="M 5.828125 0 L 4.546875 0 L 3.828125 -2.78125 C 3.804688 -2.882812 3.757812 -3.085938 3.6875 -3.390625 C 3.625 -3.703125 3.585938 -3.910156 3.578125 -4.015625 C 3.566406 -3.890625 3.53125 -3.679688 3.46875 -3.390625 C 3.414062 -3.097656 3.375 -2.894531 3.34375 -2.78125 L 2.625 0 L 1.359375 0 L 0 -5.296875 L 1.109375 -5.296875 L 1.78125 -2.40625 C 1.894531 -1.875 1.984375 -1.410156 2.046875 -1.015625 C 2.054688 -1.148438 2.085938 -1.363281 2.140625 -1.65625 C 2.191406 -1.945312 2.238281 -2.171875 2.28125 -2.328125 L 3.0625 -5.296875 L 4.125 -5.296875 L 4.890625 -2.328125 C 4.921875 -2.191406 4.960938 -1.988281 5.015625 -1.71875 C 5.066406 -1.445312 5.109375 -1.210938 5.140625 -1.015625 C 5.160156 -1.203125 5.195312 -1.4375 5.25 -1.71875 C 5.300781 -2 5.347656 -2.226562 5.390625 -2.40625 L 6.0625 -5.296875 L 7.171875 -5.296875 Z M 5.828125 0 "/></g></g><g transform="translate(101.547406, 26.791963)"><g><path d="M 0.53125 -5.09375 C 0.53125 -5.457031 0.734375 -5.640625 1.140625 -5.640625 C 1.535156 -5.640625 1.734375 -5.457031 1.734375 -5.09375 C 1.734375 -4.925781 1.679688 -4.796875 1.578125 -4.703125 C 1.484375 -4.609375 1.335938 -4.5625 1.140625 -4.5625 C 0.734375 -4.5625 0.53125 -4.738281 0.53125 -5.09375 Z M 1.6875 0 L 0.578125 0 L 0.578125 -4.046875 L 1.6875 -4.046875 Z M 1.6875 0 "/></g></g><g transform="translate(103.814557, 26.791963)"><g><path d="M 1.6875 0 L 0.578125 0 L 0.578125 -5.640625 L 1.6875 -5.640625 Z M 1.6875 0 "/></g></g><g transform="translate(106.081709, 26.791963)"><g><path d="M 1.6875 0 L 0.578125 0 L 0.578125 -5.640625 L 1.6875 -5.640625 Z M 1.6875 0 "/></g></g><g transform="translate(108.34886, 26.791963)"><g><path d="M 0 -4.046875 L 1.203125 -4.046875 L 1.96875 -1.765625 C 2.039062 -1.566406 2.085938 -1.332031 2.109375 -1.0625 L 2.125 -1.0625 C 2.15625 -1.3125 2.207031 -1.546875 2.28125 -1.765625 L 3.03125 -4.046875 L 4.21875 -4.046875 L 2.5 0.515625 C 2.34375 0.941406 2.117188 1.257812 1.828125 1.46875 C 1.546875 1.675781 1.207031 1.78125 0.8125 1.78125 C 0.625 1.78125 0.4375 1.757812 0.25 1.71875 L 0.25 0.84375 C 0.382812 0.875 0.53125 0.890625 0.6875 0.890625 C 0.882812 0.890625 1.054688 0.828125 1.203125 0.703125 C 1.347656 0.585938 1.460938 0.410156 1.546875 0.171875 L 1.609375 -0.03125 Z M 0 -4.046875 "/></g></g></g></svg>